<mxfile host="app.diagrams.net" modified="2023-06-14T14:26:25.281Z" agent="Mozilla/5.0 (Windows NT 10.0; Win64; x64; rv:109.0) Gecko/20100101 Firefox/114.0" version="21.3.8" etag="AnSHhNkGEmN3oXB40x1O" type="github">
  <diagram name="Page-1" id="rqlxTwW8L5zMWgEX4jLy">
    <mxGraphModel>
      <root>
        <mxCell id="0" />
        <mxCell id="1" parent="0" />
      </root>
    </mxGraphModel>
  </diagram>
</mxfile>
